<?xml version="1.0" standalone="no"?>
<!DOCTYPE svg PUBLIC "-//W3C//DTD SVG 20010904//EN"
 "http://www.w3.org/TR/2001/REC-SVG-20010904/DTD/svg10.dtd">
<svg version="1.0" xmlns="http://www.w3.org/2000/svg"
 width="593.000000pt" height="600.000000pt" viewBox="0 0 593.000000 600.000000"
 preserveAspectRatio="xMidYMid meet">

<g transform="translate(0.000000,600.000000) scale(0.100000,-0.100000)"
fill="#000000" stroke="none">
<path d="M2149 5378 c-411 -238 -780 -452 -820 -475 l-74 -42 502 -1 503 0 97
51 c54 28 152 85 218 126 141 89 202 113 310 120 133 9 168 -3 417 -146 123
-70 238 -133 257 -139 42 -15 1011 -17 995 -3 -24 24 -1612 935 -1634 938 -18
3 -225 -113 -771 -429z"/>
<path d="M346 4518 c38 -74 258 -454 271 -470 14 -16 54 -18 454 -20 l439 -3
35 -35 c28 -28 731 -1235 1428 -2454 l91 -158 -27 -52 c-15 -28 -48 -88 -74
-133 l-48 -81 -750 1300 c-412 716 -758 1312 -768 1325 l-18 23 -299 0 -299 0
92 -157 c50 -87 245 -426 434 -753 189 -327 626 -1084 971 -1682 345 -598 632
-1088 637 -1087 6 0 45 61 89 137 43 75 207 360 365 632 213 368 286 503 285
525 -1 34 -38 98 -716 1270 -261 451 -609 1054 -773 1340 -163 286 -309 530
-322 543 l-24 22 -745 0 -745 0 17 -32z"/>
<path d="M2154 4535 c13 -34 700 -1223 726 -1255 l27 -35 616 -5 617 -5 -155
-270 c-86 -148 -158 -269 -162 -269 -4 1 -38 55 -76 120 -38 66 -76 127 -84
137 -15 15 -43 17 -310 17 -161 0 -293 -2 -293 -3 0 -2 130 -228 288 -503 158
-274 330 -572 382 -662 78 -137 95 -161 103 -145 6 10 280 485 609 1055 329
570 598 1039 598 1042 0 4 -399 6 -887 6 -840 0 -890 1 -928 19 -22 10 -47 27
-56 37 -27 32 -109 195 -103 205 3 5 452 9 1068 9 839 0 1066 3 1074 13 12 15
247 418 273 470 l19 37 -1676 0 c-1497 0 -1676 -2 -1670 -15z"/>
<path d="M515 2623 c6 -862 8 -950 23 -965 20 -19 1599 -938 1613 -938 5 0 9
4 9 8 0 5 -66 123 -146 263 -80 140 -185 322 -232 404 -47 83 -94 160 -105
172 -11 13 -159 103 -328 200 -204 118 -311 186 -318 201 -7 15 -11 146 -11
378 0 323 -2 358 -18 393 -41 85 -477 831 -485 831 -6 0 -6 -373 -2 -947z"/>
<path d="M5299 3565 c-29 -47 -447 -778 -465 -815 l-24 -48 0 -362 0 -362 -27
-26 c-16 -15 -154 -99 -308 -187 -163 -94 -294 -175 -315 -196 -19 -20 -128
-198 -242 -395 -114 -198 -219 -377 -232 -399 -13 -22 -22 -43 -20 -47 6 -9
253 130 962 541 312 180 591 340 620 356 31 17 55 37 57 49 8 31 1 1903 -6
1891z"/>
</g>
</svg>
